<?xml version="1.0" standalone="no"?>
<!DOCTYPE svg PUBLIC "-//W3C//DTD SVG 20010904//EN"
 "http://www.w3.org/TR/2001/REC-SVG-20010904/DTD/svg10.dtd">
<svg version="1.0" xmlns="http://www.w3.org/2000/svg"
 width="300.000000pt" height="200.000000pt" viewBox="0 0 300.000000 200.000000"
 preserveAspectRatio="xMidYMid meet">
<metadata>
Created by potrace 1.10, written by Peter Selinger 2001-2011
</metadata>
<g transform="translate(0.000000,200.000000) scale(0.100000,-0.100000)"
fill="#FF5E84" stroke="none">
<path d="M540 1771 c0 -8 -69 -11 -240 -11 l-240 0 0 -325 0 -326 93 3 92 3 3
122 3 122 117 3 117 3 3 83 3 82 -121 0 -120 0 0 30 0 30 140 0 140 0 2 -242
3 -243 100 0 100 0 3 93 c2 64 6 92 15 92 7 0 39 -43 72 -95 l60 -95 112 0
c61 0 114 4 117 9 3 5 -27 58 -67 118 l-73 108 30 20 c100 66 112 257 21 348
-57 57 -106 69 -307 74 -128 4 -178 2 -178 -6z m430 -51 c64 -36 99 -106 95
-193 -1 -35 -10 -77 -18 -94 -16 -31 -65 -77 -89 -85 -9 -3 11 -40 57 -109 39
-57 71 -107 73 -111 2 -3 -41 -6 -95 -5 l-97 2 -61 92 c-51 79 -64 93 -87 93
l-28 0 0 -94 0 -95 -79 2 -80 2 -4 312 c-2 172 -3 314 -2 315 2 2 86 1 187 -2
172 -5 186 -7 228 -30z m-450 -45 l0 -65 -145 0 -145 0 0 -50 0 -50 118 0 117
0 0 -65 0 -65 -117 0 -118 0 0 -122 0 -123 -75 0 -75 0 0 303 0 302 220 0 220
0 0 -65z"/>
<path d="M717 1613 c-4 -3 -7 -37 -7 -75 l0 -68 55 0 c46 0 60 4 80 25 39 38
32 86 -16 110 -29 15 -100 20 -112 8z m120 -39 c18 -25 16 -41 -7 -64 -12 -12
-33 -20 -55 -20 l-35 0 0 56 0 57 42 -6 c23 -3 48 -14 55 -23z"/>
<path d="M1346 1760 c-139 -54 -216 -167 -216 -314 0 -138 66 -243 190 -303
49 -24 67 -27 160 -27 95 0 110 2 160 27 131 67 201 191 187 336 -11 125 -96
237 -212 280 -74 28 -199 28 -269 1z m285 -31 c68 -32 118 -81 150 -145 34
-70 35 -209 1 -274 -34 -65 -89 -119 -152 -148 -46 -21 -70 -25 -150 -26 -89
-1 -100 1 -164 33 -113 55 -167 153 -162 288 5 140 68 232 191 280 84 32 206
29 286 -8z"/>
<path d="M1415 1586 c-88 -40 -119 -138 -70 -221 31 -54 81 -79 145 -73 109
11 169 120 118 217 -13 25 -35 53 -49 64 -34 25 -105 31 -144 13z m131 -31
c37 -24 55 -60 57 -112 2 -83 -51 -133 -141 -133 -78 0 -141 99 -112 175 32
84 125 117 196 70z"/>
<path d="M2363 1763 l-63 -4 0 -162 -1 -162 -27 34 c-15 19 -63 78 -107 131
-44 53 -91 110 -105 128 -25 32 -25 32 -118 32 l-92 0 2 -322 3 -323 100 0
100 0 0 158 0 158 20 -24 c46 -54 81 -97 158 -194 l82 -103 93 0 92 0 0 250 0
250 38 0 37 0 -3 -245 -3 -245 106 0 106 0 -3 245 -3 244 85 3 85 3 3 73 3 72
-213 0 c-117 0 -235 2 -263 4 -27 2 -78 1 -112 -1z m-310 -57 c18 -23 66 -82
107 -132 41 -49 90 -109 109 -132 18 -23 38 -42 42 -42 5 0 9 79 9 175 l0 175
40 0 39 0 3 -67 3 -68 40 -3 40 -3 -3 -239 -3 -240 -78 0 c-72 0 -80 2 -94 24
-9 13 -22 29 -29 37 -7 8 -46 55 -87 104 -131 161 -144 176 -148 171 -2 -2 -5
-78 -6 -168 l-2 -163 -80 0 -80 0 -3 295 c-1 162 0 300 2 305 2 6 35 11 75 11
l72 1 32 -41z m427 -16 c0 -59 -1 -60 -28 -60 -27 0 -27 1 -25 58 1 31 2 58 3
60 0 1 11 2 25 2 24 0 25 -3 25 -60z m440 -5 l0 -55 -80 0 -80 0 0 -245 0
-245 -80 0 -80 0 0 245 0 245 -50 0 -50 0 0 58 0 57 210 -3 210 -3 0 -54z"/>
<path d="M2036 873 c-3 -4 -6 -152 -6 -330 l0 -325 188 4 c177 3 190 4 242 29
77 36 121 77 155 146 26 52 29 68 29 148 0 72 -5 99 -23 137 -51 106 -149 170
-286 187 -86 10 -290 13 -299 4z m408 -49 c62 -24 124 -84 156 -149 19 -40 24
-66 23 -130 0 -134 -57 -226 -172 -278 -40 -19 -69 -22 -223 -25 l-178 -4 0
307 0 307 173 -4 c139 -4 181 -8 221 -24z"/>
<path d="M2208 545 l3 -135 52 0 c75 0 118 15 155 53 94 97 11 217 -149 217
l-64 0 3 -135z m167 92 c84 -47 80 -148 -7 -187 -25 -11 -65 -20 -95 -20 l-53
0 0 115 0 115 58 0 c40 0 68 -7 97 -23z"/>
<path d="M870 545 l0 -325 233 2 232 3 0 75 0 75 -131 3 -130 3 0 49 1 50 103
0 103 0 -3 63 -3 62 -100 3 -100 3 -1 54 0 55 133 0 133 0 0 75 0 75 -235 0
-235 0 0 -325z m450 248 l0 -58 -132 0 -133 0 -3 -72 -3 -73 106 0 105 0 0
-45 0 -44 -102 -3 -103 -3 0 -69 0 -68 133 1 132 2 0 -61 0 -60 -212 0 -213 0
0 305 0 305 213 0 212 0 0 -57z"/>
<path d="M1360 545 l0 -325 100 0 100 0 0 161 0 161 131 -161 130 -161 95 0
94 0 0 325 0 326 -102 -3 -102 -3 2 -165 c2 -100 0 -161 -6 -155 -5 6 -27 33
-48 60 -22 28 -79 98 -128 158 l-89 107 -88 0 -89 0 0 -325z m276 173 c60 -73
117 -142 127 -153 11 -11 26 -30 34 -42 8 -13 19 -20 24 -17 5 3 9 81 9 175
l0 169 80 0 80 0 0 -305 0 -305 -82 1 -83 0 -52 67 c-110 142 -221 271 -227
265 -3 -3 -6 -80 -6 -170 l0 -163 -80 0 -80 0 0 305 0 305 74 0 74 0 108 -132z"/>
<path d="M294 481 c-2 -2 -4 -19 -4 -38 l0 -33 131 0 130 0 -3 38 -3 37 -123
0 c-68 0 -125 -2 -128 -4z m236 -32 c0 -17 -9 -19 -110 -19 -98 0 -110 2 -110
18 0 15 13 17 110 18 102 2 110 0 110 -17z"/>
</g>
</svg>
